<?xml version="1.0" encoding="UTF-8" standalone="no"?>
<!DOCTYPE svg PUBLIC "-//W3C//DTD SVG 1.0//EN" "http://www.w3.org/TR/2001/PR-SVG-20010719/DTD/svg10.dtd">
<svg width="57cm" height="24cm" viewBox="58 -60 1139 473" xmlns="http://www.w3.org/2000/svg" xmlns:xlink="http://www.w3.org/1999/xlink">
  <g>
    <rect style="fill: #ffffff" x="281.496" y="-58.4676" width="173.85" height="38"/>
    <rect style="fill: none; fill-opacity:0; stroke-width: 2; stroke: #000000" x="281.496" y="-58.4676" width="173.85" height="38"/>
    <text font-size="12.7998" style="fill: #000000;text-anchor:middle;font-family:sans-serif;font-style:normal;font-weight:normal" x="368.421" y="-35.5676">
      <tspan x="368.421" y="-35.5676">/RgbDepthSynchronizer</tspan>
    </text>
  </g>
  <g>
    <line style="fill: none; fill-opacity:0; stroke-width: 1; stroke-dasharray: 8; stroke: #000000" x1="368.421" y1="-20.4676" x2="368.421" y2="14.4397"/>
    <line style="fill: none; fill-opacity:0; stroke-width: 1; stroke-dasharray: 8; stroke: #000000" x1="368.421" y1="374.44" x2="368.421" y2="412.954"/>
    <rect style="fill: #ffffff" x="361.421" y="14.4397" width="14" height="360"/>
    <rect style="fill: none; fill-opacity:0; stroke-width: 2; stroke: #000000" x="361.421" y="14.4397" width="14" height="360"/>
  </g>
  <g>
    <line style="fill: none; fill-opacity:0; stroke-width: 2; stroke: #000000" x1="344.421" y1="14.379" x2="254.459" y2="14.0572"/>
    <polygon style="fill: #000000" points="344.403,19.3789 360.421,14.4362 344.439,9.37899 "/>
    <polygon style="fill: none; fill-opacity:0; stroke-width: 2; stroke: #000000" points="344.403,19.3789 360.421,14.4362 344.439,9.37899 "/>
  </g>
  <text font-size="12.7998" style="fill: #000000;text-anchor:start;font-family:sans-serif;font-style:normal;font-weight:normal" x="58.2207" y="9.47223">
    <tspan x="58.2207" y="9.47223">inputPointCloudCallback(pointCloud)</tspan>
  </text>
  <text font-size="12.7998" style="fill: #000000;text-anchor:start;font-family:sans-serif;font-style:normal;font-weight:normal" x="279.219" y="4.88721">
    <tspan x="279.219" y="4.88721"></tspan>
  </text>
  <text font-size="12.7998" style="fill: #000000;text-anchor:start;font-family:sans-serif;font-style:normal;font-weight:normal" x="265.464" y="4.88721">
    <tspan x="265.464" y="4.88721"></tspan>
  </text>
  <g>
    <rect style="fill: #ffffff" x="680.442" y="-58.3948" width="160.9" height="38"/>
    <rect style="fill: none; fill-opacity:0; stroke-width: 2; stroke: #000000" x="680.442" y="-58.3948" width="160.9" height="38"/>
    <text font-size="12.7998" style="fill: #000000;text-anchor:middle;font-family:sans-serif;font-style:normal;font-weight:normal" x="760.892" y="-35.4948">
      <tspan x="760.892" y="-35.4948">/MessageConversions</tspan>
    </text>
  </g>
  <text font-size="12.7998" style="fill: #000000;text-anchor:start;font-family:sans-serif;font-style:normal;font-weight:normal" x="760.892" y="-39.3948">
    <tspan x="760.892" y="-39.3948"></tspan>
  </text>
  <g>
    <line style="fill: none; fill-opacity:0; stroke-width: 1; stroke-dasharray: 8; stroke: #000000" x1="760.892" y1="-20.3948" x2="760.892" y2="37.8993"/>
    <line style="fill: none; fill-opacity:0; stroke-width: 1; stroke-dasharray: 8; stroke: #000000" x1="760.892" y1="77.8993" x2="760.892" y2="125.712"/>
    <rect style="fill: #ffffff" x="753.892" y="37.8993" width="14" height="40"/>
    <rect style="fill: none; fill-opacity:0; stroke-width: 2; stroke: #000000" x="753.892" y="37.8993" width="14" height="40"/>
  </g>
  <g>
    <line style="fill: none; fill-opacity:0; stroke-width: 2; stroke: #000000" x1="736.893" y1="37.8167" x2="376.421" y2="36.0653"/>
    <polygon style="fill: #000000" points="736.868,42.8167 752.892,37.8945 736.917,32.8168 "/>
    <polygon style="fill: none; fill-opacity:0; stroke-width: 2; stroke: #000000" points="736.868,42.8167 752.892,37.8945 736.917,32.8168 "/>
  </g>
  <text font-size="12.7998" style="fill: #000000;text-anchor:start;font-family:sans-serif;font-style:normal;font-weight:normal" x="403.014" y="29.6463">
    <tspan x="403.014" y="29.6463">convertPointCloudToImage(pointCloud, CV_8UC3)</tspan>
  </text>
  <g>
    <line style="fill: none; fill-opacity:0; stroke-width: 2; stroke-dasharray: 8; stroke: #000000" x1="393.421" y1="77.3561" x2="753.892" y2="77.8993"/>
    <polygon style="fill: #000000" points="393.429,72.3561 377.421,77.332 393.413,82.3561 "/>
    <polygon style="fill: none; fill-opacity:0; stroke-width: 2; stroke: #000000" points="393.429,72.3561 377.421,77.332 393.413,82.3561 "/>
  </g>
  <text font-size="12.7998" style="fill: #000000;text-anchor:start;font-family:sans-serif;font-style:normal;font-weight:normal" x="535.98" y="68.1605">
    <tspan x="535.98" y="68.1605">rgbImage</tspan>
  </text>
  <g>
    <line style="fill: none; fill-opacity:0; stroke-width: 1; stroke-dasharray: 8; stroke: #000000" x1="760.646" y1="127.766" x2="760.646" y2="182.786"/>
    <line style="fill: none; fill-opacity:0; stroke-width: 1; stroke-dasharray: 8; stroke: #000000" x1="760.646" y1="222.786" x2="760.646" y2="249.727"/>
    <rect style="fill: #ffffff" x="753.646" y="182.786" width="14" height="40"/>
    <rect style="fill: none; fill-opacity:0; stroke-width: 2; stroke: #000000" x="753.646" y="182.786" width="14" height="40"/>
  </g>
  <g>
    <line style="fill: none; fill-opacity:0; stroke-width: 2; stroke: #000000" x1="739.978" y1="182.78" x2="378.172" y2="182.658"/>
    <polygon style="fill: #000000" points="739.976,187.78 755.978,182.786 739.979,177.78 "/>
    <polygon style="fill: none; fill-opacity:0; stroke-width: 2; stroke: #000000" points="739.976,187.78 755.978,182.786 739.979,177.78 "/>
  </g>
  <text font-size="12.7998" style="fill: #000000;text-anchor:start;font-family:sans-serif;font-style:normal;font-weight:normal" x="393.202" y="174.42">
    <tspan x="393.202" y="174.42">convertPointCloudToImage(pointCloud, CV_8UC1)</tspan>
  </text>
  <g>
    <line style="fill: none; fill-opacity:0; stroke-width: 2; stroke-dasharray: 8; stroke: #000000" x1="395.255" y1="223.994" x2="755.48" y2="222.786"/>
    <polygon style="fill: #000000" points="395.238,218.994 379.255,224.048 395.272,228.994 "/>
    <polygon style="fill: none; fill-opacity:0; stroke-width: 2; stroke: #000000" points="395.238,218.994 379.255,224.048 395.272,228.994 "/>
  </g>
  <text font-size="12.7998" style="fill: #000000;text-anchor:start;font-family:sans-serif;font-style:normal;font-weight:normal" x="535.063" y="212.13">
    <tspan x="535.063" y="212.13">depthImage</tspan>
  </text>
  <text font-size="12.7998" style="fill: #000000;text-anchor:start;font-family:sans-serif;font-style:normal;font-weight:normal" x="518.557" y="25.0613">
    <tspan x="518.557" y="25.0613"></tspan>
  </text>
  <g>
    <line style="fill: none; fill-opacity:0; stroke-width: 2; stroke: #000000" x1="952.723" y1="121.879" x2="376.421" y2="123.181"/>
    <polygon style="fill: #000000" points="952.734,126.879 968.722,121.843 952.711,116.879 "/>
    <polygon style="fill: none; fill-opacity:0; stroke-width: 2; stroke: #000000" points="952.734,126.879 968.722,121.843 952.711,116.879 "/>
  </g>
  <text font-size="12.7998" style="fill: #000000;text-anchor:start;font-family:sans-serif;font-style:normal;font-weight:normal" x="506.636" y="115.845">
    <tspan x="506.636" y="115.845">publish(rgbImage)</tspan>
  </text>
  <g>
    <line style="fill: none; fill-opacity:0; stroke-width: 2; stroke: #000000" x1="956.39" y1="270.407" x2="378.255" y2="270.818"/>
    <polygon style="fill: #000000" points="956.394,275.407 972.39,270.396 956.387,265.407 "/>
    <polygon style="fill: none; fill-opacity:0; stroke-width: 2; stroke: #000000" points="956.394,275.407 972.39,270.396 956.387,265.407 "/>
  </g>
  <text font-size="12.7998" style="fill: #000000;text-anchor:start;font-family:sans-serif;font-style:normal;font-weight:normal" x="505.719" y="260.731">
    <tspan x="505.719" y="260.731">publish(depthImage)</tspan>
  </text>
  <g>
    <line style="fill: none; fill-opacity:0; stroke-width: 2; stroke: #000000" x1="960.059" y1="330.876" x2="375.421" y2="329.44"/>
    <polygon style="fill: #000000" points="960.046,335.876 976.058,330.915 960.071,325.876 "/>
    <polygon style="fill: none; fill-opacity:0; stroke-width: 2; stroke: #000000" points="960.046,335.876 976.058,330.915 960.071,325.876 "/>
  </g>
  <text font-size="12.7998" style="fill: #000000;text-anchor:start;font-family:sans-serif;font-style:normal;font-weight:normal" x="506.636" y="320.337">
    <tspan x="506.636" y="320.337">publish(pointCloud)</tspan>
  </text>
  <g>
    <polygon style="fill: #ffffff" points="969.722,104.841 1091.22,104.841 1103.22,116.841 1103.22,138.841 969.722,138.841 "/>
    <polygon style="fill: none; fill-opacity:0; stroke-width: 2; stroke: #000000" points="969.722,104.841 1091.22,104.841 1103.22,116.841 1103.22,138.841 969.722,138.841 "/>
    <polyline style="fill: none; fill-opacity:0; stroke-width: 1; stroke: #000000" points="1091.22,104.841 1091.22,116.841 1103.22,116.841 "/>
    <text font-size="12.7998" style="fill: #000000;text-anchor:start;font-family:monospace;font-style:normal;font-weight:normal" x="976.722" y="129.741">
      <tspan x="976.722" y="129.741">rgb_image_topic</tspan>
    </text>
  </g>
  <text font-size="12.7998" style="fill: #000000;text-anchor:start;font-family:sans-serif;font-style:normal;font-weight:normal" x="1068.76" y="109.426">
    <tspan x="1068.76" y="109.426"></tspan>
  </text>
  <g>
    <polygon style="fill: #ffffff" points="973.39,253.395 1110.29,253.395 1122.29,265.395 1122.29,287.395 973.39,287.395 "/>
    <polygon style="fill: none; fill-opacity:0; stroke-width: 2; stroke: #000000" points="973.39,253.395 1110.29,253.395 1122.29,265.395 1122.29,287.395 973.39,287.395 "/>
    <polyline style="fill: none; fill-opacity:0; stroke-width: 1; stroke: #000000" points="1110.29,253.395 1110.29,265.395 1122.29,265.395 "/>
    <text font-size="12.7998" style="fill: #000000;text-anchor:start;font-family:monospace;font-style:normal;font-weight:normal" x="980.39" y="278.295">
      <tspan x="980.39" y="278.295">depth_image_topic</tspan>
    </text>
  </g>
  <g>
    <polygon style="fill: #ffffff" points="977.058,313.917 1183.26,313.917 1195.26,325.917 1195.26,347.917 977.058,347.917 "/>
    <polygon style="fill: none; fill-opacity:0; stroke-width: 2; stroke: #000000" points="977.058,313.917 1183.26,313.917 1195.26,325.917 1195.26,347.917 977.058,347.917 "/>
    <polyline style="fill: none; fill-opacity:0; stroke-width: 1; stroke: #000000" points="1183.26,313.917 1183.26,325.917 1195.26,325.917 "/>
    <text font-size="12.7998" style="fill: #000000;text-anchor:start;font-family:monospace;font-style:normal;font-weight:normal" x="984.058" y="338.817">
      <tspan x="984.058" y="338.817">point_cloud_internal_topic</tspan>
    </text>
  </g>
</svg>
